<svg width="28" height="28" viewBox="0 0 28 28" fill="none" xmlns="http://www.w3.org/2000/svg">
<path d="M14 25.6667C14 25.6667 4.66667 20.4167 4.66667 11.9C4.63554 10.6549 4.85394 9.41607 5.30902 8.25663C5.76411 7.09719 6.44666 6.04056 7.31646 5.14902C8.18626 4.25747 9.22571 3.54904 10.3736 3.06548C11.5214 2.58191 12.7545 2.33299 14 2.33337C15.2456 2.33299 16.4786 2.58191 17.6264 3.06548C18.7743 3.54904 19.8138 4.25747 20.6836 5.14902C21.5534 6.04056 22.2359 7.09719 22.691 8.25663C23.1461 9.41607 23.3645 10.6549 23.3333 11.9C23.3333 20.4167 14 25.6667 14 25.6667Z" stroke="#42484C" stroke-width="2" stroke-linecap="round" stroke-linejoin="round"/>
<path d="M14 15.1666C15.933 15.1666 17.5 13.5996 17.5 11.6666C17.5 9.73363 15.933 8.16663 14 8.16663C12.067 8.16663 10.5 9.73363 10.5 11.6666C10.5 13.5996 12.067 15.1666 14 15.1666Z" stroke="#42484C" stroke-width="2" stroke-linecap="round" stroke-linejoin="round"/>
</svg>
